<svg width="120" height="40" fill="none" xmlns="http://www.w3.org/2000/svg"><g clip-path="url(#clip0)"><path d="M110.135 0H9.535c-.367 0-.73 0-1.095.002-.306.002-.61.008-.919.013C6.85.022 6.18.082 5.517.19a6.665 6.665 0 00-1.9.627A6.438 6.438 0 00.193 5.521a12.993 12.993 0 00-.179 2.002c-.01.307-.01.615-.015.921v23.114c.005.311.006.612.015.922.008.671.068 1.34.18 2.002.11.663.32 1.305.624 1.905.303.598.701 1.143 1.179 1.614.473.477 1.019.875 1.618 1.179.599.304 1.24.517 1.901.63a13.47 13.47 0 002.004.177c.31.007.613.01.919.01.366.003.728.003 1.095.003h100.6c.359 0 .724 0 1.084-.002.304 0 .617-.004.922-.01.67-.01 1.338-.068 2-.178a6.811 6.811 0 001.908-.63 6.296 6.296 0 001.617-1.18 6.407 6.407 0 001.182-1.613c.302-.6.51-1.242.619-1.905.111-.661.173-1.33.185-2.002.004-.31.004-.611.004-.921.008-.364.008-.725.008-1.094V9.536c0-.366 0-.73-.008-1.092 0-.306 0-.614-.004-.92a13.57 13.57 0 00-.185-2.003 6.648 6.648 0 00-.619-1.903 6.469 6.469 0 00-2.799-2.8 6.77 6.77 0 00-1.908-.627c-.661-.11-1.33-.17-2-.177-.305-.004-.618-.01-.922-.012-.36-.002-.725-.002-1.084-.002z" fill="#A6A6A6"/><path d="M8.445 39.125c-.305 0-.602-.004-.904-.01a12.696 12.696 0 01-1.87-.164 5.884 5.884 0 01-1.656-.548 5.406 5.406 0 01-1.397-1.016 5.321 5.321 0 01-1.02-1.397 5.722 5.722 0 01-.544-1.657 12.413 12.413 0 01-.166-1.875c-.007-.21-.015-.913-.015-.913v-23.1s.009-.692.015-.895a12.37 12.37 0 01.165-1.872 5.755 5.755 0 01.544-1.662c.26-.518.603-.99 1.015-1.398A5.565 5.565 0 015.668 1.05C6.288.95 6.915.895 7.543.887l.902-.012h102.769l.913.013a12.37 12.37 0 011.858.162 5.933 5.933 0 011.671.548 5.589 5.589 0 012.415 2.42c.261.52.441 1.076.536 1.649.103.624.161 1.255.173 1.887.003.283.003.588.003.89.008.375.008.732.008 1.092v20.929c0 .363 0 .718-.008 1.075 0 .325 0 .623-.004.93-.011.62-.068 1.24-.171 1.853a5.716 5.716 0 01-.54 1.67 5.47 5.47 0 01-1.015 1.386 5.414 5.414 0 01-1.4 1.022 5.855 5.855 0 01-1.668.55c-.618.101-1.243.156-1.869.163-.293.007-.599.011-.897.011l-1.084.002-101.69-.002z" fill="#000"/><path d="M42.302 27.14H37.57l-1.137 3.356h-2.005l4.484-12.418h2.083l4.483 12.418h-2.039l-1.136-3.356zm-4.243-1.55h3.752l-1.85-5.447h-.051l-1.85 5.448zm17.1.38c0 2.813-1.505 4.62-3.778 4.62a3.07 3.07 0 01-2.848-1.583h-.043v4.484H46.63V21.442h1.8v1.506h.033a3.211 3.211 0 012.883-1.6c2.298 0 3.813 1.816 3.813 4.622zm-1.91 0c0-1.833-.947-3.039-2.392-3.039-1.42 0-2.375 1.23-2.375 3.038 0 1.825.955 3.046 2.375 3.046 1.445 0 2.392-1.196 2.392-3.046zm11.875 0c0 2.813-1.505 4.62-3.778 4.62a3.07 3.07 0 01-2.848-1.583h-.043v4.484h-1.859V21.442h1.799v1.506h.034a3.211 3.211 0 012.883-1.6c2.298 0 3.813 1.816 3.813 4.622zm-1.91 0c0-1.833-.947-3.039-2.392-3.039-1.42 0-2.375 1.23-2.375 3.038 0 1.825.955 3.046 2.375 3.046 1.445 0 2.392-1.196 2.392-3.046zm8.496 1.066c.138 1.231 1.334 2.04 2.97 2.04 1.566 0 2.693-.809 2.693-1.919 0-.964-.68-1.541-2.29-1.936l-1.609-.388c-2.28-.551-3.339-1.617-3.339-3.348 0-2.142 1.867-3.614 4.519-3.614 2.624 0 4.423 1.472 4.483 3.614h-1.876c-.112-1.24-1.136-1.987-2.634-1.987-1.497 0-2.521.757-2.521 1.858 0 .878.654 1.395 2.255 1.79l1.368.336c2.548.603 3.606 1.626 3.606 3.442 0 2.324-1.85 3.779-4.793 3.779-2.754 0-4.614-1.421-4.734-3.667h1.902zM83.346 19.3v2.142h1.722v1.472h-1.722v4.991c0 .775.345 1.137 1.102 1.137.204-.004.408-.018.611-.043v1.463c-.34.063-.686.092-1.032.086-1.833 0-2.548-.689-2.548-2.445v-5.19h-1.316v-1.47h1.316V19.3h1.867zm2.719 6.67c0-2.85 1.678-4.64 4.294-4.64 2.625 0 4.295 1.79 4.295 4.64 0 2.856-1.661 4.638-4.295 4.638-2.633 0-4.294-1.782-4.294-4.639zm6.695 0c0-1.955-.895-3.108-2.401-3.108-1.506 0-2.4 1.162-2.4 3.108 0 1.961.894 3.106 2.4 3.106 1.506 0 2.401-1.145 2.401-3.107zm3.426-4.528h1.772v1.541h.043a2.16 2.16 0 012.178-1.636c.214 0 .428.023.637.07v1.738a2.594 2.594 0 00-.835-.112 1.872 1.872 0 00-1.937 2.083v5.37h-1.858v-9.054zm13.198 6.395c-.25 1.643-1.85 2.771-3.898 2.771-2.634 0-4.269-1.765-4.269-4.596 0-2.84 1.644-4.681 4.191-4.681 2.505 0 4.08 1.72 4.08 4.466v.636h-6.395v.113a2.36 2.36 0 002.436 2.564 2.049 2.049 0 002.091-1.273h1.764zm-6.282-2.702h4.526a2.174 2.174 0 00-2.22-2.298 2.292 2.292 0 00-2.306 2.298zM37.826 8.73a2.64 2.64 0 012.808 2.966c0 1.906-1.03 3.002-2.808 3.002h-2.155V8.73h2.155zm-1.228 5.124h1.125a1.876 1.876 0 001.967-2.146 1.88 1.88 0 00-1.967-2.134h-1.125v4.28zm5.083-1.41a2.133 2.133 0 114.247 0 2.134 2.134 0 11-4.247 0zm3.333 0c0-.976-.439-1.547-1.208-1.547-.773 0-1.207.571-1.207 1.547 0 .984.434 1.55 1.207 1.55.77 0 1.208-.57 1.208-1.55zm6.56 2.253h-.923l-.93-3.316h-.07l-.927 3.316h-.913l-1.242-4.502h.902l.806 3.436h.067l.925-3.436h.853l.926 3.436h.07l.803-3.436h.889l-1.237 4.502zm2.28-4.502h.855v.715h.066c.231-.527.77-.849 1.344-.802a1.465 1.465 0 011.559 1.675v2.915h-.889v-2.692c0-.724-.314-1.084-.972-1.084a1.033 1.033 0 00-1.075 1.141v2.634h-.889v-4.502zm5.24-1.758h.888v6.26h-.888v-6.26zm2.124 4.007a2.133 2.133 0 114.247 0 2.134 2.134 0 11-4.247 0zm3.333 0c0-.976-.439-1.547-1.208-1.547-.773 0-1.207.571-1.207 1.547 0 .984.434 1.55 1.207 1.55.77 0 1.208-.57 1.208-1.55zm1.85.98c0-.81.603-1.278 1.675-1.344l1.22-.07v-.39c0-.475-.315-.743-.922-.743-.497 0-.84.182-.939.5h-.86c.09-.773.818-1.27 1.84-1.27 1.128 0 1.765.563 1.765 1.514v3.076h-.855v-.632h-.07c-.291.462-.808.732-1.353.707a1.36 1.36 0 01-1.501-1.348zm2.894-.385v-.376l-1.1.07c-.62.042-.9.253-.9.65 0 .405.351.64.834.64a1.062 1.062 0 001.166-.984zm2.053-.595c0-1.423.732-2.324 1.87-2.324a1.484 1.484 0 011.38.79h.067V8.437h.888v6.26h-.851v-.71h-.07a1.563 1.563 0 01-1.415.785c-1.145 0-1.869-.902-1.869-2.328zm.918 0c0 .955.45 1.53 1.203 1.53.75 0 1.212-.583 1.212-1.526 0-.939-.468-1.53-1.212-1.53-.748 0-1.203.579-1.203 1.526zm6.964 0a2.133 2.133 0 114.247 0 2.134 2.134 0 11-4.247 0zm3.333 0c0-.976-.439-1.547-1.208-1.547-.773 0-1.207.571-1.207 1.547 0 .984.435 1.55 1.207 1.55.77 0 1.208-.57 1.208-1.55zm2.106-2.25h.856v.716h.066c.231-.527.77-.849 1.344-.802a1.464 1.464 0 011.559 1.675v2.915h-.889v-2.692c0-.724-.315-1.084-.972-1.084a1.033 1.033 0 00-1.075 1.141v2.634h-.889v-4.502zm8.846-1.12v1.141h.976v.749h-.976v2.315c0 .472.195.678.637.678.113 0 .226-.007.339-.02v.74c-.16.029-.322.044-.484.045-.988 0-1.382-.347-1.382-1.215v-2.543h-.714v-.749h.715V9.073h.89zm2.19-.637h.88v2.481h.07a1.386 1.386 0 011.374-.806 1.484 1.484 0 011.55 1.678v2.908h-.889v-2.689c0-.719-.335-1.083-.963-1.083a1.052 1.052 0 00-1.134 1.142v2.63h-.888V8.436zm9.056 5.045a1.828 1.828 0 01-1.951 1.302 2.046 2.046 0 01-2.08-2.324 2.078 2.078 0 012.076-2.352c1.253 0 2.009.856 2.009 2.27v.31h-3.18v.05a1.189 1.189 0 001.199 1.29 1.08 1.08 0 001.072-.546h.855zm-3.126-1.451h2.275a1.09 1.09 0 00-1.109-1.167 1.153 1.153 0 00-1.166 1.166zM24.769 20.3a4.949 4.949 0 012.357-4.151 5.066 5.066 0 00-3.992-2.158c-1.679-.176-3.307 1.005-4.163 1.005-.872 0-2.19-.988-3.608-.958a5.315 5.315 0 00-4.473 2.727c-1.934 3.349-.491 8.27 1.361 10.976.927 1.326 2.01 2.806 3.428 2.754 1.387-.058 1.905-.885 3.58-.885 1.658 0 2.144.885 3.59.851 1.489-.024 2.426-1.33 3.32-2.669a10.96 10.96 0 001.52-3.092 4.782 4.782 0 01-2.92-4.4zm-2.732-8.09a4.873 4.873 0 001.115-3.49 4.958 4.958 0 00-3.208 1.66 4.636 4.636 0 00-1.143 3.361 4.099 4.099 0 003.236-1.53z" fill="#fff"/></g><defs><clipPath id="clip0"><path fill="#fff" d="M0 0h120v40H0z"/></clipPath></defs></svg>