<svg fill="none" height="23" viewBox="0 0 87 87" width="23" xmlns="http://www.w3.org/2000/svg"><path d="m49.9 53.8c.2.2.2.7 0 1-1.7 1.7-4.1 2.4-7.9 2.4-3.6 0-6.2-.7-7.9-2.4-.2-.2-.2-.7 0-1 .2-.2.7-.2 1 0 1.4 1.2 3.6 1.9 6.7 1.9 3.1 0 5.5-.7 6.7-1.9.5-.3.9-.3 1.4 0zm-12.2-8.4c0-1.7-1.4-3.1-3.1-3.1s-3.1 1.4-3.1 3.1 1.4 3.1 3.1 3.1c1.6 0 3.1-1.5 3.1-3.1zm46.3-3.4c0 23.3-18.7 42-42 42s-42-18.7-42-42 18.7-42 42-42 42 18.7 42 42zm-17.5-.5c0-2.9-2.4-5.5-5.5-5.5-1.4 0-2.9.5-3.8 1.4-3.6-2.4-8.6-4.1-14.2-4.1l3.1-9.6 8.2 1.9c0 2.4 1.9 4.3 4.3 4.3s4.3-1.9 4.3-4.3-1.7-4.1-4.1-4.1c-1.9 0-3.4 1.2-4.1 2.9l-8.9-2.2c-.5 0-.7.2-1 .5l-3.4 10.6c-5.8 0-11 1.7-14.9 4.1-1-1-2.2-1.4-3.6-1.4-2.9 0-5.5 2.4-5.5 5.5 0 1.9 1.2 3.6 2.6 4.6 0 .5-.2 1.2-.2 1.7 0 7.9 9.8 14.4 21.8 14.4s21.8-6.5 21.8-14.4c0-.5 0-1.2-.2-1.7 2.1-.7 3.3-2.4 3.3-4.6zm-17.1.5c-1.7 0-3.1 1.4-3.1 3.1s1.4 3.1 3.1 3.1 3.1-1.4 3.1-3.1-1.4-3.1-3.1-3.1z" fill="#fff"/></svg>