<svg fill="none" height="23" width="28" xmlns="http://www.w3.org/2000/svg"><path d="M18.709.005V0h1.313l.48.097c.32.063.61.146.87.248s.514.22.758.357c.244.136.465.275.664.416.197.14.374.288.53.444.155.159.396.2.725.123a9.61 9.61 0 001.06-.32c.379-.135.753-.289 1.124-.459.37-.17.596-.278.676-.324l.127-.077.005-.007.1-.051.006-.008.007-.005.008-.005.005-.008.025-.007.025-.006-.005.039-.007.038-.026.077-.025.05-.012.039a.91.91 0 00-.026.102c-.008.043-.088.213-.24.51-.151.298-.34.6-.568.907s-.43.538-.61.694a5.858 5.858 0 00-.362.332c-.059.065-.13.124-.214.179l-.127.084-.05.025-.005.008-.008.005-.007.005-.005.008-.05.026-.006.007-.007.005-.008.005-.005.008-.005.008-.008.005-.007.005-.005.008h.126l.707-.154a12.54 12.54 0 001.35-.37l.796-.268.101-.05.05-.008L28 2.73v.051l-.013.006-.012.007-.005.008-.008.005-.007.005-.005.008-.005.007-.008.006-.008.005-.005.007-.005.008-.007.005-.026.051-.007.005-.32.434c-.211.286-.325.43-.342.434-.016.005-.04.03-.07.077-.029.047-.207.237-.536.569-.328.332-.65.627-.964.886-.316.26-.476.58-.48.96-.005.377-.024.805-.058 1.281-.033.477-.097.991-.19 1.544a18.56 18.56 0 01-.428 1.877c-.194.697-.43 1.378-.707 2.042s-.568 1.26-.871 1.787c-.303.527-.581.974-.834 1.34-.252.366-.509.71-.77 1.034s-.59.687-.99 1.092c-.4.404-.619.625-.656.664-.039.037-.203.177-.495.419-.29.243-.6.486-.934.73-.331.242-.636.443-.914.605s-.613.346-1.005.554c-.39.21-.813.403-1.267.582a19.05 19.05 0 01-1.44.498c-.504.153-.992.272-1.464.357s-1.005.157-1.603.217l-.896.09V23H8.004v-.013l-.215-.013c-.143-.008-.26-.017-.353-.025a41.614 41.614 0 01-1.048-.14 14.944 14.944 0 01-1.427-.256 18.798 18.798 0 01-1.54-.485 14.892 14.892 0 01-1.75-.722 68.146 68.146 0 01-.909-.46 6.398 6.398 0 01-.409-.234l-.227-.14-.005-.009-.007-.005-.008-.005-.005-.007-.05-.026-.006-.008-.007-.005-.008-.005-.005-.007-.005-.008-.007-.005H0v-.051l.025.005.025.008.114.012c.076.009.282.022.619.039a11.285 11.285 0 002.234-.115c.396-.06.863-.162 1.401-.307a10.27 10.27 0 001.485-.515c.45-.201.77-.35.96-.45a9.32 9.32 0 00.863-.54l.58-.396.006-.008.007-.005.008-.005.005-.008.005-.008.007-.005.008-.005.005-.007.025-.008.026-.005.005-.026.007-.025.008-.005.005-.008-.202-.013-.392-.025a3.683 3.683 0 01-.593-.115c-.27-.068-.56-.17-.87-.307a6.685 6.685 0 01-.91-.485 4.478 4.478 0 01-.639-.467c-.13-.122-.298-.296-.505-.52a5.153 5.153 0 01-.535-.697 6.28 6.28 0 01-.434-.825l-.21-.464-.025-.077-.007-.026-.005-.025.037.005.038.008.278.038c.185.025.475.034.871.025a6.68 6.68 0 00.82-.05c.152-.026.245-.043.278-.052l.05-.012.127-.026.005-.008.008-.005.007-.005.005-.007-.252-.064a4.489 4.489 0 01-.177-.051 9.588 9.588 0 01-.682-.281 5.194 5.194 0 01-.883-.472 6.111 6.111 0 01-.626-.503 7.194 7.194 0 01-.65-.71 5.114 5.114 0 01-.63-1.008 6.174 6.174 0 01-.417-1.098 5.987 5.987 0 01-.182-1.06l-.045-.535.025.005.025.007.101.051.391.18c.261.118.585.22.973.305.387.086.618.132.694.14l.113.014h.228L3.63 8.76l-.008-.005-.007-.005-.006-.008-.005-.008-.007-.005-.008-.005-.005-.007-.05-.026-.005-.008-.008-.005-.007-.005-.006-.008-.05-.025-.005-.008a31.256 31.256 0 01-.217-.163 3.326 3.326 0 01-.434-.416c-.152-.17-.303-.349-.455-.536a4.142 4.142 0 01-.404-.6 7.31 7.31 0 01-.374-.812 5.81 5.81 0 01-.409-1.97c-.008-.324 0-.6.026-.83.025-.23.075-.49.151-.779.076-.29.185-.595.328-.919l.215-.485.025-.076.008-.005.005-.008.005-.008.007-.005.008.005.005.008.005.008.008.005.007.005.005.007.005.008.008.005.025.051.008.005.005.008.34.383c.228.255.497.54.809.855.311.315.484.478.517.49a.371.371 0 01.126.118c.05.063.22.213.505.451.287.239.661.515 1.124.83.463.315.976.625 1.54.932.564.306 1.17.583 1.818.83.648.246 1.102.408 1.363.484.261.077.707.175 1.339.294.63.12 1.106.196 1.426.23s.539.053.656.058l.177.006-.005-.039-.007-.038-.051-.32a6.072 6.072 0 01-.05-.893c0-.382.029-.736.088-1.059.059-.323.147-.65.265-.983s.233-.598.346-.799c.114-.199.264-.426.45-.681.185-.256.424-.52.719-.792.294-.272.631-.514 1.01-.727S17.253.39 17.573.28s.589-.183.808-.217a2.78 2.78 0 00.328-.059z" fill="#fff"/></svg>