<svg fill="#fff" viewBox="0 0 87 87" xmlns="http://www.w3.org/2000/svg"><g fill="#fff"><path d="m31.7 64.2c-1.6 0-2.9 1.3-2.9 2.9s1.3 2.9 2.9 2.9 2.9-1.3 2.9-2.9-1.3-2.9-2.9-2.9zm31.2 0c1.6 0 2.9 1.3 2.9 2.9s-1.3 2.9-2.9 2.9-2.9-1.3-2.9-2.9 1.3-2.9 2.9-2.9zm-23.3 22.4v-22.5h5.1v12.6l1.3-1.6 2.9-3.4h7.2l-6 5.9 6.4 9h-6.6l-3.5-5.7-1.7 1.7v4zm-18.7-14.9-1.8 10.2-2.5-10.2h-5.9l-2.4 10.2-1.9-10.2h-5.3l3.9 14.9h6.7l1.9-7.8 2 7.8h6.7l3.9-14.9zm63.3 4.3.3-4.3h-4.6l-.3 1.6c-1.1-1.1-2.4-2.1-4.7-2.1-4.2 0-6.5 2.7-6.5 7.9s2.3 7.9 6.5 7.9c2.3 0 3.7-.9 4.7-2l.3 1.6h4.6l-.3-4.3zm-5 5c-.6.8-1.7 1.4-3 1.4-1.5 0-2.7-1-2.7-3.3s1.2-3.3 2.7-3.3c1.3 0 2.3.6 3 1.4zm-43.2-6.2v-3.2h-7.2v15.1h7.2v-3.2h-2.3v-8.7zm22.5 0v-3.2h7.3v15.1h-7.3v-3.2h2.3v-8.7z"/><path d="m29.3 12.3v-12.3h-28.2v58.5h28.2v-12.3h-8.8v-33.9zm27 0v-12.3h28.2v58.5h-28.2v-12.3h8.8v-33.9z"/></g></svg>